<?xml version="1.0" encoding="utf-8"?>
<!-- Generator: Adobe Illustrator 17.1.0, SVG Export Plug-In . SVG Version: 6.00 Build 0)  -->
<!DOCTYPE svg PUBLIC "-//W3C//DTD SVG 1.1//EN" "http://www.w3.org/Graphics/SVG/1.1/DTD/svg11.dtd">
<svg version="1.1" id="Layer_1" xmlns="http://www.w3.org/2000/svg" xmlns:xlink="http://www.w3.org/1999/xlink" x="0px" y="0px"
	 viewBox="0 0 275 84" enable-background="new 0 0 275 84" xml:space="preserve">
<g>
	<path fill="#F18A12" d="M59.4,0H24.6L0,24.6v34.8L24.6,84h34.8L84,59.4V24.6L59.4,0z M5,26.7L26.7,5h30.6l17.8,17.8l-13.4,5.6
		l-9.9-9.9H32.3L18.5,32.3v10.2l-4.4,5.6L5,51.9V26.7z M49.6,45.2H55l2.3,18.5L42,57.1l-5.3-12.9l-18.1,7.5v-1l5-6.5v-9.9l10.8-10.8
		h15.3l10.8,10.8v15.4L58.7,49l-0.7-5.8l-9.3-3.9l-1.2,0.5L49.6,45.2z M79,57.3L57.3,79H26.7L5,57.3l5-2.1l18.7,18.7h26.5l18.7-18.7
		V28.8l5-2.1V57.3z"/>
	<g>
		<path fill="#FFFFFF" d="M171.9,35.9c0-5.5-4.2-11.3-11.8-11.3h-14.6v34.7h5.8V30.5l8.8,0c4.1,0,6,2.8,6,5.5c0,2.8-1.8,5.5-6,5.5
			h-5l10.2,17.9h6.6l-7.4-12.9C169.4,44.8,171.9,40.3,171.9,35.9z"/>
		<path fill="#FFFFFF" d="M133,40.8c1.2-1.5,2.2-3.8,2.2-6.3c0-4.7-3.3-9.8-10.6-9.8h-14.2v5.8h14.7c5.6,0,5.7,8.1,0.1,8.1h-14.8
			v20.9h15.6c6.9,0,10.8-5.1,10.8-10.4C136.9,45.3,135.1,42.3,133,40.8z M126.1,53.6h-9.9v-9.3h9.9c3.4,0,5,2.3,5,4.7
			C131.1,51.3,129.6,53.6,126.1,53.6z"/>
		<polygon fill="#FFFFFF" points="275,44.3 275,38.5 248.5,38.5 248.5,59.4 275,59.4 275,53.6 254.3,53.6 254.3,44.3 		"/>
		<rect x="248.5" y="24.7" fill="#FFFFFF" width="26.4" height="5.8"/>
		<polygon fill="#FFFFFF" points="225.4,46.4 214.5,24.7 208.1,24.7 225.4,59.4 242.8,24.7 236.3,24.7 		"/>
		<path fill="#FFFFFF" d="M177.8,59.4h6.4c3.7-7.2,7.3-14.5,10.9-21.7c2.7,5.3,5.3,10.7,8,16h-7.9l-2.9,5.8c6.7,0,13.4,0,20.2,0
			l-17.4-34.7L177.8,59.4z"/>
	</g>
</g>
</svg>
