<svg width="30" height="30" xmlns="http://www.w3.org/2000/svg" viewBox="0 0 100 100" preserveAspectRatio="xMidYMid" class="uil-default"><path fill="none" class="bk" d="M0 0h100v100H0z"/><rect x="46.5" y="40" width="7" height="20" rx="5" ry="5" fill="#fed054" transform="translate(0 -30)"><animate attributeName="opacity" from="1" to="0" dur="1s" begin="0s" repeatCount="indefinite"/></rect><rect x="46.5" y="40" width="7" height="20" rx="5" ry="5" fill="#fed054" transform="rotate(3 622.827 65)"><animate attributeName="opacity" from="1" to="0" dur="1s" begin="0.008333333333333333s" repeatCount="indefinite"/></rect><rect x="46.5" y="40" width="7" height="20" rx="5" ry="5" fill="#fed054" transform="rotate(6 336.217 65)"><animate attributeName="opacity" from="1" to="0" dur="1s" begin="0.016666666666666666s" repeatCount="indefinite"/></rect><rect x="46.5" y="40" width="7" height="20" rx="5" ry="5" fill="#fed054" transform="rotate(9 240.593 65)"><animate attributeName="opacity" from="1" to="0" dur="1s" begin="0.025s" repeatCount="indefinite"/></rect><rect x="46.5" y="40" width="7" height="20" rx="5" ry="5" fill="#fed054" transform="rotate(12 192.715 65)"><animate attributeName="opacity" from="1" to="0" dur="1s" begin="0.03333333333333333s" repeatCount="indefinite"/></rect><rect x="46.5" y="40" width="7" height="20" rx="5" ry="5" fill="#fed054" transform="rotate(15 163.936 65)"><animate attributeName="opacity" from="1" to="0" dur="1s" begin="0.041666666666666664s" repeatCount="indefinite"/></rect><rect x="46.5" y="40" width="7" height="20" rx="5" ry="5" fill="#fed054" transform="rotate(18 144.706 65)"><animate attributeName="opacity" from="1" to="0" dur="1s" begin="0.05s" repeatCount="indefinite"/></rect><rect x="46.5" y="40" width="7" height="20" rx="5" ry="5" fill="#fed054" transform="rotate(21 130.933 65)"><animate attributeName="opacity" from="1" to="0" dur="1s" begin="0.058333333333333334s" repeatCount="indefinite"/></rect><rect x="46.5" y="40" width="7" height="20" rx="5" ry="5" fill="#fed054" transform="rotate(24 120.57 65)"><animate attributeName="opacity" from="1" to="0" dur="1s" begin="0.06666666666666667s" repeatCount="indefinite"/></rect><rect x="46.5" y="40" width="7" height="20" rx="5" ry="5" fill="#fed054" transform="rotate(27 112.48 65)"><animate attributeName="opacity" from="1" to="0" dur="1s" begin="0.075s" repeatCount="indefinite"/></rect><rect x="46.5" y="40" width="7" height="20" rx="5" ry="5" fill="#fed054" transform="rotate(30 105.98 65)"><animate attributeName="opacity" from="1" to="0" dur="1s" begin="0.08333333333333333s" repeatCount="indefinite"/></rect><rect x="46.5" y="40" width="7" height="20" rx="5" ry="5" fill="#fed054" transform="rotate(33 100.64 65)"><animate attributeName="opacity" from="1" to="0" dur="1s" begin="0.09166666666666666s" repeatCount="indefinite"/></rect><rect x="46.5" y="40" width="7" height="20" rx="5" ry="5" fill="#fed054" transform="rotate(36 96.165 65)"><animate attributeName="opacity" from="1" to="0" dur="1s" begin="0.1s" repeatCount="indefinite"/></rect><rect x="46.5" y="40" width="7" height="20" rx="5" ry="5" fill="#fed054" transform="rotate(39 92.359 65)"><animate attributeName="opacity" from="1" to="0" dur="1s" begin="0.10833333333333334s" repeatCount="indefinite"/></rect><rect x="46.5" y="40" width="7" height="20" rx="5" ry="5" fill="#fed054" transform="rotate(42 89.076 65)"><animate attributeName="opacity" from="1" to="0" dur="1s" begin="0.11666666666666667s" repeatCount="indefinite"/></rect><rect x="46.5" y="40" width="7" height="20" rx="5" ry="5" fill="#fed054" transform="rotate(45 86.213 65)"><animate attributeName="opacity" from="1" to="0" dur="1s" begin="0.125s" repeatCount="indefinite"/></rect><rect x="46.5" y="40" width="7" height="20" rx="5" ry="5" fill="#fed054" transform="rotate(48 83.69 65)"><animate attributeName="opacity" from="1" to="0" dur="1s" begin="0.13333333333333333s" repeatCount="indefinite"/></rect><rect x="46.5" y="40" width="7" height="20" rx="5" ry="5" fill="#fed054" transform="rotate(51 81.448 65)"><animate attributeName="opacity" from="1" to="0" dur="1s" begin="0.14166666666666666s" repeatCount="indefinite"/></rect><rect x="46.5" y="40" width="7" height="20" rx="5" ry="5" fill="#fed054" transform="rotate(54 79.44 65)"><animate attributeName="opacity" from="1" to="0" dur="1s" begin="0.15s" repeatCount="indefinite"/></rect><rect x="46.5" y="40" width="7" height="20" rx="5" ry="5" fill="#fed054" transform="rotate(57 77.627 65)"><animate attributeName="opacity" from="1" to="0" dur="1s" begin="0.15833333333333333s" repeatCount="indefinite"/></rect><rect x="46.5" y="40" width="7" height="20" rx="5" ry="5" fill="#fed054" transform="rotate(60 75.98 65)"><animate attributeName="opacity" from="1" to="0" dur="1s" begin="0.16666666666666666s" repeatCount="indefinite"/></rect><rect x="46.5" y="40" width="7" height="20" rx="5" ry="5" fill="#fed054" transform="rotate(63 74.478 65)"><animate attributeName="opacity" from="1" to="0" dur="1s" begin="0.175s" repeatCount="indefinite"/></rect><rect x="46.5" y="40" width="7" height="20" rx="5" ry="5" fill="#fed054" transform="rotate(66 73.098 65)"><animate attributeName="opacity" from="1" to="0" dur="1s" begin="0.18333333333333332s" repeatCount="indefinite"/></rect><rect x="46.5" y="40" width="7" height="20" rx="5" ry="5" fill="#fed054" transform="rotate(69 71.825 65)"><animate attributeName="opacity" from="1" to="0" dur="1s" begin="0.19166666666666668s" repeatCount="indefinite"/></rect><rect x="46.5" y="40" width="7" height="20" rx="5" ry="5" fill="#fed054" transform="rotate(72 70.646 65)"><animate attributeName="opacity" from="1" to="0" dur="1s" begin="0.2s" repeatCount="indefinite"/></rect><rect x="46.5" y="40" width="7" height="20" rx="5" ry="5" fill="#fed054" transform="rotate(75 69.548 65)"><animate attributeName="opacity" from="1" to="0" dur="1s" begin="0.20833333333333334s" repeatCount="indefinite"/></rect><rect x="46.5" y="40" width="7" height="20" rx="5" ry="5" fill="#fed054" transform="rotate(78 68.523 65)"><animate attributeName="opacity" from="1" to="0" dur="1s" begin="0.21666666666666667s" repeatCount="indefinite"/></rect><rect x="46.5" y="40" width="7" height="20" rx="5" ry="5" fill="#fed054" transform="rotate(81 67.563 65)"><animate attributeName="opacity" from="1" to="0" dur="1s" begin="0.225s" repeatCount="indefinite"/></rect><rect x="46.5" y="40" width="7" height="20" rx="5" ry="5" fill="#fed054" transform="rotate(84 66.66 65)"><animate attributeName="opacity" from="1" to="0" dur="1s" begin="0.23333333333333334s" repeatCount="indefinite"/></rect><rect x="46.5" y="40" width="7" height="20" rx="5" ry="5" fill="#fed054" transform="rotate(87 65.807 65)"><animate attributeName="opacity" from="1" to="0" dur="1s" begin="0.24166666666666667s" repeatCount="indefinite"/></rect><rect x="46.5" y="40" width="7" height="20" rx="5" ry="5" fill="#fed054" transform="rotate(90 65 65)"><animate attributeName="opacity" from="1" to="0" dur="1s" begin="0.25s" repeatCount="indefinite"/></rect><rect x="46.5" y="40" width="7" height="20" rx="5" ry="5" fill="#fed054" transform="rotate(93 64.234 65)"><animate attributeName="opacity" from="1" to="0" dur="1s" begin="0.25833333333333336s" repeatCount="indefinite"/></rect><rect x="46.5" y="40" width="7" height="20" rx="5" ry="5" fill="#fed054" transform="rotate(96 63.506 65)"><animate attributeName="opacity" from="1" to="0" dur="1s" begin="0.26666666666666666s" repeatCount="indefinite"/></rect><rect x="46.5" y="40" width="7" height="20" rx="5" ry="5" fill="#fed054" transform="rotate(99 62.811 65)"><animate attributeName="opacity" from="1" to="0" dur="1s" begin="0.275s" repeatCount="indefinite"/></rect><rect x="46.5" y="40" width="7" height="20" rx="5" ry="5" fill="#fed054" transform="rotate(102 62.147 65)"><animate attributeName="opacity" from="1" to="0" dur="1s" begin="0.2833333333333333s" repeatCount="indefinite"/></rect><rect x="46.5" y="40" width="7" height="20" rx="5" ry="5" fill="#fed054" transform="rotate(105 61.51 65)"><animate attributeName="opacity" from="1" to="0" dur="1s" begin="0.2916666666666667s" repeatCount="indefinite"/></rect><rect x="46.5" y="40" width="7" height="20" rx="5" ry="5" fill="#fed054" transform="rotate(108 60.898 65)"><animate attributeName="opacity" from="1" to="0" dur="1s" begin="0.3s" repeatCount="indefinite"/></rect><rect x="46.5" y="40" width="7" height="20" rx="5" ry="5" fill="#fed054" transform="rotate(111 60.31 65)"><animate attributeName="opacity" from="1" to="0" dur="1s" begin="0.30833333333333335s" repeatCount="indefinite"/></rect><rect x="46.5" y="40" width="7" height="20" rx="5" ry="5" fill="#fed054" transform="rotate(114 59.741 65)"><animate attributeName="opacity" from="1" to="0" dur="1s" begin="0.31666666666666665s" repeatCount="indefinite"/></rect><rect x="46.5" y="40" width="7" height="20" rx="5" ry="5" fill="#fed054" transform="rotate(117 59.192 65)"><animate attributeName="opacity" from="1" to="0" dur="1s" begin="0.325s" repeatCount="indefinite"/></rect><rect x="46.5" y="40" width="7" height="20" rx="5" ry="5" fill="#fed054" transform="rotate(120 58.66 65)"><animate attributeName="opacity" from="1" to="0" dur="1s" begin="0.3333333333333333s" repeatCount="indefinite"/></rect><rect x="46.5" y="40" width="7" height="20" rx="5" ry="5" fill="#fed054" transform="rotate(123 58.144 65)"><animate attributeName="opacity" from="1" to="0" dur="1s" begin="0.3416666666666667s" repeatCount="indefinite"/></rect><rect x="46.5" y="40" width="7" height="20" rx="5" ry="5" fill="#fed054" transform="rotate(126 57.643 65)"><animate attributeName="opacity" from="1" to="0" dur="1s" begin="0.35s" repeatCount="indefinite"/></rect><rect x="46.5" y="40" width="7" height="20" rx="5" ry="5" fill="#fed054" transform="rotate(129 57.155 65)"><animate attributeName="opacity" from="1" to="0" dur="1s" begin="0.35833333333333334s" repeatCount="indefinite"/></rect><rect x="46.5" y="40" width="7" height="20" rx="5" ry="5" fill="#fed054" transform="rotate(132 56.678 65)"><animate attributeName="opacity" from="1" to="0" dur="1s" begin="0.36666666666666664s" repeatCount="indefinite"/></rect><rect x="46.5" y="40" width="7" height="20" rx="5" ry="5" fill="#fed054" transform="rotate(135 56.213 65)"><animate attributeName="opacity" from="1" to="0" dur="1s" begin="0.375s" repeatCount="indefinite"/></rect><rect x="46.5" y="40" width="7" height="20" rx="5" ry="5" fill="#fed054" transform="rotate(138 55.758 65)"><animate attributeName="opacity" from="1" to="0" dur="1s" begin="0.38333333333333336s" repeatCount="indefinite"/></rect><rect x="46.5" y="40" width="7" height="20" rx="5" ry="5" fill="#fed054" transform="rotate(141 55.312 65)"><animate attributeName="opacity" from="1" to="0" dur="1s" begin="0.39166666666666666s" repeatCount="indefinite"/></rect><rect x="46.5" y="40" width="7" height="20" rx="5" ry="5" fill="#fed054" transform="rotate(144 54.874 65)"><animate attributeName="opacity" from="1" to="0" dur="1s" begin="0.4s" repeatCount="indefinite"/></rect><rect x="46.5" y="40" width="7" height="20" rx="5" ry="5" fill="#fed054" transform="rotate(147 54.443 65)"><animate attributeName="opacity" from="1" to="0" dur="1s" begin="0.4083333333333333s" repeatCount="indefinite"/></rect><rect x="46.5" y="40" width="7" height="20" rx="5" ry="5" fill="#fed054" transform="rotate(150 54.02 65)"><animate attributeName="opacity" from="1" to="0" dur="1s" begin="0.4166666666666667s" repeatCount="indefinite"/></rect><rect x="46.5" y="40" width="7" height="20" rx="5" ry="5" fill="#fed054" transform="rotate(153 53.601 65)"><animate attributeName="opacity" from="1" to="0" dur="1s" begin="0.425s" repeatCount="indefinite"/></rect><rect x="46.5" y="40" width="7" height="20" rx="5" ry="5" fill="#fed054" transform="rotate(156 53.188 65)"><animate attributeName="opacity" from="1" to="0" dur="1s" begin="0.43333333333333335s" repeatCount="indefinite"/></rect><rect x="46.5" y="40" width="7" height="20" rx="5" ry="5" fill="#fed054" transform="rotate(159 52.78 65)"><animate attributeName="opacity" from="1" to="0" dur="1s" begin="0.44166666666666665s" repeatCount="indefinite"/></rect><rect x="46.5" y="40" width="7" height="20" rx="5" ry="5" fill="#fed054" transform="rotate(162 52.376 65)"><animate attributeName="opacity" from="1" to="0" dur="1s" begin="0.45s" repeatCount="indefinite"/></rect><rect x="46.5" y="40" width="7" height="20" rx="5" ry="5" fill="#fed054" transform="rotate(165 51.975 65)"><animate attributeName="opacity" from="1" to="0" dur="1s" begin="0.4583333333333333s" repeatCount="indefinite"/></rect><rect x="46.5" y="40" width="7" height="20" rx="5" ry="5" fill="#fed054" transform="rotate(168 51.577 65)"><animate attributeName="opacity" from="1" to="0" dur="1s" begin="0.4666666666666667s" repeatCount="indefinite"/></rect><rect x="46.5" y="40" width="7" height="20" rx="5" ry="5" fill="#fed054" transform="rotate(171 51.18 65)"><animate attributeName="opacity" from="1" to="0" dur="1s" begin="0.475s" repeatCount="indefinite"/></rect><rect x="46.5" y="40" width="7" height="20" rx="5" ry="5" fill="#fed054" transform="rotate(174 50.786 65)"><animate attributeName="opacity" from="1" to="0" dur="1s" begin="0.48333333333333334s" repeatCount="indefinite"/></rect><rect x="46.5" y="40" width="7" height="20" rx="5" ry="5" fill="#fed054" transform="rotate(177 50.393 65)"><animate attributeName="opacity" from="1" to="0" dur="1s" begin="0.49166666666666664s" repeatCount="indefinite"/></rect><rect x="46.5" y="40" width="7" height="20" rx="5" ry="5" fill="#fed054" transform="rotate(180 50 65)"><animate attributeName="opacity" from="1" to="0" dur="1s" begin="0.5s" repeatCount="indefinite"/></rect><rect x="46.5" y="40" width="7" height="20" rx="5" ry="5" fill="#fed054" transform="rotate(-177 49.607 65)"><animate attributeName="opacity" from="1" to="0" dur="1s" begin="0.5083333333333333s" repeatCount="indefinite"/></rect><rect x="46.5" y="40" width="7" height="20" rx="5" ry="5" fill="#fed054" transform="rotate(-174 49.214 65)"><animate attributeName="opacity" from="1" to="0" dur="1s" begin="0.5166666666666667s" repeatCount="indefinite"/></rect><rect x="46.5" y="40" width="7" height="20" rx="5" ry="5" fill="#fed054" transform="rotate(-171 48.82 65)"><animate attributeName="opacity" from="1" to="0" dur="1s" begin="0.525s" repeatCount="indefinite"/></rect><rect x="46.5" y="40" width="7" height="20" rx="5" ry="5" fill="#fed054" transform="rotate(-168 48.423 65)"><animate attributeName="opacity" from="1" to="0" dur="1s" begin="0.5333333333333333s" repeatCount="indefinite"/></rect><rect x="46.5" y="40" width="7" height="20" rx="5" ry="5" fill="#fed054" transform="rotate(-165 48.025 65)"><animate attributeName="opacity" from="1" to="0" dur="1s" begin="0.5416666666666666s" repeatCount="indefinite"/></rect><rect x="46.5" y="40" width="7" height="20" rx="5" ry="5" fill="#fed054" transform="rotate(-162 47.624 65)"><animate attributeName="opacity" from="1" to="0" dur="1s" begin="0.55s" repeatCount="indefinite"/></rect><rect x="46.5" y="40" width="7" height="20" rx="5" ry="5" fill="#fed054" transform="rotate(-159 47.22 65)"><animate attributeName="opacity" from="1" to="0" dur="1s" begin="0.5583333333333333s" repeatCount="indefinite"/></rect><rect x="46.5" y="40" width="7" height="20" rx="5" ry="5" fill="#fed054" transform="rotate(-156 46.812 65)"><animate attributeName="opacity" from="1" to="0" dur="1s" begin="0.5666666666666667s" repeatCount="indefinite"/></rect><rect x="46.5" y="40" width="7" height="20" rx="5" ry="5" fill="#fed054" transform="rotate(-153 46.399 65)"><animate attributeName="opacity" from="1" to="0" dur="1s" begin="0.575s" repeatCount="indefinite"/></rect><rect x="46.5" y="40" width="7" height="20" rx="5" ry="5" fill="#fed054" transform="rotate(-150 45.98 65)"><animate attributeName="opacity" from="1" to="0" dur="1s" begin="0.5833333333333334s" repeatCount="indefinite"/></rect><rect x="46.5" y="40" width="7" height="20" rx="5" ry="5" fill="#fed054" transform="rotate(-147 45.557 65)"><animate attributeName="opacity" from="1" to="0" dur="1s" begin="0.5916666666666667s" repeatCount="indefinite"/></rect><rect x="46.5" y="40" width="7" height="20" rx="5" ry="5" fill="#fed054" transform="rotate(-144 45.126 65)"><animate attributeName="opacity" from="1" to="0" dur="1s" begin="0.6s" repeatCount="indefinite"/></rect><rect x="46.5" y="40" width="7" height="20" rx="5" ry="5" fill="#fed054" transform="rotate(-141 44.688 65)"><animate attributeName="opacity" from="1" to="0" dur="1s" begin="0.6083333333333333s" repeatCount="indefinite"/></rect><rect x="46.5" y="40" width="7" height="20" rx="5" ry="5" fill="#fed054" transform="rotate(-138 44.242 65)"><animate attributeName="opacity" from="1" to="0" dur="1s" begin="0.6166666666666667s" repeatCount="indefinite"/></rect><rect x="46.5" y="40" width="7" height="20" rx="5" ry="5" fill="#fed054" transform="rotate(-135 43.787 65)"><animate attributeName="opacity" from="1" to="0" dur="1s" begin="0.625s" repeatCount="indefinite"/></rect><rect x="46.5" y="40" width="7" height="20" rx="5" ry="5" fill="#fed054" transform="rotate(-132 43.322 65)"><animate attributeName="opacity" from="1" to="0" dur="1s" begin="0.6333333333333333s" repeatCount="indefinite"/></rect><rect x="46.5" y="40" width="7" height="20" rx="5" ry="5" fill="#fed054" transform="rotate(-129 42.845 65)"><animate attributeName="opacity" from="1" to="0" dur="1s" begin="0.6416666666666667s" repeatCount="indefinite"/></rect><rect x="46.5" y="40" width="7" height="20" rx="5" ry="5" fill="#fed054" transform="rotate(-126 42.357 65)"><animate attributeName="opacity" from="1" to="0" dur="1s" begin="0.65s" repeatCount="indefinite"/></rect><rect x="46.5" y="40" width="7" height="20" rx="5" ry="5" fill="#fed054" transform="rotate(-123 41.856 65)"><animate attributeName="opacity" from="1" to="0" dur="1s" begin="0.6583333333333333s" repeatCount="indefinite"/></rect><rect x="46.5" y="40" width="7" height="20" rx="5" ry="5" fill="#fed054" transform="rotate(-120 41.34 65)"><animate attributeName="opacity" from="1" to="0" dur="1s" begin="0.6666666666666666s" repeatCount="indefinite"/></rect><rect x="46.5" y="40" width="7" height="20" rx="5" ry="5" fill="#fed054" transform="rotate(-117 40.808 65)"><animate attributeName="opacity" from="1" to="0" dur="1s" begin="0.675s" repeatCount="indefinite"/></rect><rect x="46.5" y="40" width="7" height="20" rx="5" ry="5" fill="#fed054" transform="rotate(-114 40.259 65)"><animate attributeName="opacity" from="1" to="0" dur="1s" begin="0.6833333333333333s" repeatCount="indefinite"/></rect><rect x="46.5" y="40" width="7" height="20" rx="5" ry="5" fill="#fed054" transform="rotate(-111 39.69 65)"><animate attributeName="opacity" from="1" to="0" dur="1s" begin="0.6916666666666667s" repeatCount="indefinite"/></rect><rect x="46.5" y="40" width="7" height="20" rx="5" ry="5" fill="#fed054" transform="rotate(-108 39.102 65)"><animate attributeName="opacity" from="1" to="0" dur="1s" begin="0.7s" repeatCount="indefinite"/></rect><rect x="46.5" y="40" width="7" height="20" rx="5" ry="5" fill="#fed054" transform="rotate(-105 38.49 65)"><animate attributeName="opacity" from="1" to="0" dur="1s" begin="0.7083333333333334s" repeatCount="indefinite"/></rect><rect x="46.5" y="40" width="7" height="20" rx="5" ry="5" fill="#fed054" transform="rotate(-102 37.853 65)"><animate attributeName="opacity" from="1" to="0" dur="1s" begin="0.7166666666666667s" repeatCount="indefinite"/></rect><rect x="46.5" y="40" width="7" height="20" rx="5" ry="5" fill="#fed054" transform="rotate(-99 37.189 65)"><animate attributeName="opacity" from="1" to="0" dur="1s" begin="0.725s" repeatCount="indefinite"/></rect><rect x="46.5" y="40" width="7" height="20" rx="5" ry="5" fill="#fed054" transform="rotate(-96 36.494 65)"><animate attributeName="opacity" from="1" to="0" dur="1s" begin="0.7333333333333333s" repeatCount="indefinite"/></rect><rect x="46.5" y="40" width="7" height="20" rx="5" ry="5" fill="#fed054" transform="rotate(-93 35.766 65)"><animate attributeName="opacity" from="1" to="0" dur="1s" begin="0.7416666666666667s" repeatCount="indefinite"/></rect><rect x="46.5" y="40" width="7" height="20" rx="5" ry="5" fill="#fed054" transform="rotate(-90 35 65)"><animate attributeName="opacity" from="1" to="0" dur="1s" begin="0.75s" repeatCount="indefinite"/></rect><rect x="46.5" y="40" width="7" height="20" rx="5" ry="5" fill="#fed054" transform="rotate(-87 34.193 65)"><animate attributeName="opacity" from="1" to="0" dur="1s" begin="0.7583333333333333s" repeatCount="indefinite"/></rect><rect x="46.5" y="40" width="7" height="20" rx="5" ry="5" fill="#fed054" transform="rotate(-84 33.34 65)"><animate attributeName="opacity" from="1" to="0" dur="1s" begin="0.7666666666666667s" repeatCount="indefinite"/></rect><rect x="46.5" y="40" width="7" height="20" rx="5" ry="5" fill="#fed054" transform="rotate(-81 32.437 65)"><animate attributeName="opacity" from="1" to="0" dur="1s" begin="0.775s" repeatCount="indefinite"/></rect><rect x="46.5" y="40" width="7" height="20" rx="5" ry="5" fill="#fed054" transform="rotate(-78 31.477 65)"><animate attributeName="opacity" from="1" to="0" dur="1s" begin="0.7833333333333333s" repeatCount="indefinite"/></rect><rect x="46.5" y="40" width="7" height="20" rx="5" ry="5" fill="#fed054" transform="rotate(-75 30.452 65)"><animate attributeName="opacity" from="1" to="0" dur="1s" begin="0.7916666666666666s" repeatCount="indefinite"/></rect><rect x="46.5" y="40" width="7" height="20" rx="5" ry="5" fill="#fed054" transform="rotate(-72 29.354 65)"><animate attributeName="opacity" from="1" to="0" dur="1s" begin="0.8s" repeatCount="indefinite"/></rect><rect x="46.5" y="40" width="7" height="20" rx="5" ry="5" fill="#fed054" transform="rotate(-69 28.175 65)"><animate attributeName="opacity" from="1" to="0" dur="1s" begin="0.8083333333333333s" repeatCount="indefinite"/></rect><rect x="46.5" y="40" width="7" height="20" rx="5" ry="5" fill="#fed054" transform="rotate(-66 26.902 65)"><animate attributeName="opacity" from="1" to="0" dur="1s" begin="0.8166666666666667s" repeatCount="indefinite"/></rect><rect x="46.5" y="40" width="7" height="20" rx="5" ry="5" fill="#fed054" transform="rotate(-63 25.522 65)"><animate attributeName="opacity" from="1" to="0" dur="1s" begin="0.825s" repeatCount="indefinite"/></rect><rect x="46.5" y="40" width="7" height="20" rx="5" ry="5" fill="#fed054" transform="rotate(-60 24.02 65)"><animate attributeName="opacity" from="1" to="0" dur="1s" begin="0.8333333333333334s" repeatCount="indefinite"/></rect><rect x="46.5" y="40" width="7" height="20" rx="5" ry="5" fill="#fed054" transform="rotate(-57 22.373 65)"><animate attributeName="opacity" from="1" to="0" dur="1s" begin="0.8416666666666667s" repeatCount="indefinite"/></rect><rect x="46.5" y="40" width="7" height="20" rx="5" ry="5" fill="#fed054" transform="rotate(-54 20.56 65)"><animate attributeName="opacity" from="1" to="0" dur="1s" begin="0.85s" repeatCount="indefinite"/></rect><rect x="46.5" y="40" width="7" height="20" rx="5" ry="5" fill="#fed054" transform="rotate(-51 18.552 65)"><animate attributeName="opacity" from="1" to="0" dur="1s" begin="0.8583333333333333s" repeatCount="indefinite"/></rect><rect x="46.5" y="40" width="7" height="20" rx="5" ry="5" fill="#fed054" transform="rotate(-48 16.31 65)"><animate attributeName="opacity" from="1" to="0" dur="1s" begin="0.8666666666666667s" repeatCount="indefinite"/></rect><rect x="46.5" y="40" width="7" height="20" rx="5" ry="5" fill="#fed054" transform="rotate(-45 13.787 65)"><animate attributeName="opacity" from="1" to="0" dur="1s" begin="0.875s" repeatCount="indefinite"/></rect><rect x="46.5" y="40" width="7" height="20" rx="5" ry="5" fill="#fed054" transform="rotate(-42 10.924 65)"><animate attributeName="opacity" from="1" to="0" dur="1s" begin="0.8833333333333333s" repeatCount="indefinite"/></rect><rect x="46.5" y="40" width="7" height="20" rx="5" ry="5" fill="#fed054" transform="rotate(-39 7.641 65)"><animate attributeName="opacity" from="1" to="0" dur="1s" begin="0.8916666666666667s" repeatCount="indefinite"/></rect><rect x="46.5" y="40" width="7" height="20" rx="5" ry="5" fill="#fed054" transform="rotate(-36 3.835 65)"><animate attributeName="opacity" from="1" to="0" dur="1s" begin="0.9s" repeatCount="indefinite"/></rect><rect x="46.5" y="40" width="7" height="20" rx="5" ry="5" fill="#fed054" transform="rotate(-33 -.64 65)"><animate attributeName="opacity" from="1" to="0" dur="1s" begin="0.9083333333333333s" repeatCount="indefinite"/></rect><rect x="46.5" y="40" width="7" height="20" rx="5" ry="5" fill="#fed054" transform="rotate(-30 -5.98 65)"><animate attributeName="opacity" from="1" to="0" dur="1s" begin="0.9166666666666666s" repeatCount="indefinite"/></rect><rect x="46.5" y="40" width="7" height="20" rx="5" ry="5" fill="#fed054" transform="rotate(-27 -12.48 65)"><animate attributeName="opacity" from="1" to="0" dur="1s" begin="0.925s" repeatCount="indefinite"/></rect><rect x="46.5" y="40" width="7" height="20" rx="5" ry="5" fill="#fed054" transform="rotate(-24 -20.57 65)"><animate attributeName="opacity" from="1" to="0" dur="1s" begin="0.9333333333333333s" repeatCount="indefinite"/></rect><rect x="46.5" y="40" width="7" height="20" rx="5" ry="5" fill="#fed054" transform="rotate(-21 -30.933 65)"><animate attributeName="opacity" from="1" to="0" dur="1s" begin="0.9416666666666667s" repeatCount="indefinite"/></rect><rect x="46.5" y="40" width="7" height="20" rx="5" ry="5" fill="#fed054" transform="rotate(-18 -44.706 65)"><animate attributeName="opacity" from="1" to="0" dur="1s" begin="0.95s" repeatCount="indefinite"/></rect><rect x="46.5" y="40" width="7" height="20" rx="5" ry="5" fill="#fed054" transform="rotate(-15 -63.936 65)"><animate attributeName="opacity" from="1" to="0" dur="1s" begin="0.9583333333333334s" repeatCount="indefinite"/></rect><rect x="46.5" y="40" width="7" height="20" rx="5" ry="5" fill="#fed054" transform="rotate(-12 -92.715 65)"><animate attributeName="opacity" from="1" to="0" dur="1s" begin="0.9666666666666667s" repeatCount="indefinite"/></rect><rect x="46.5" y="40" width="7" height="20" rx="5" ry="5" fill="#fed054" transform="rotate(-9 -140.593 65)"><animate attributeName="opacity" from="1" to="0" dur="1s" begin="0.975s" repeatCount="indefinite"/></rect><rect x="46.5" y="40" width="7" height="20" rx="5" ry="5" fill="#fed054" transform="rotate(-6 -236.217 65)"><animate attributeName="opacity" from="1" to="0" dur="1s" begin="0.9833333333333333s" repeatCount="indefinite"/></rect><rect x="46.5" y="40" width="7" height="20" rx="5" ry="5" fill="#fed054" transform="rotate(-3 -522.827 65)"><animate attributeName="opacity" from="1" to="0" dur="1s" begin="0.9916666666666667s" repeatCount="indefinite"/></rect></svg>